<mxfile host="www.draw.io" modified="2020-05-25T09:29:48.208Z" agent="5.0 (Windows NT 10.0; Win64; x64) AppleWebKit/537.36 (KHTML, like Gecko) Chrome/83.0.4103.61 Safari/537.36" etag="HRbIVdvQQOs-u3P_PVwh" version="13.1.3" type="gitlab">
  <diagram name="Page-1" id="9f46799a-70d6-7492-0946-bef42562c5a5">
    <mxGraphModel dx="2827" dy="819" grid="1" gridSize="10" guides="1" tooltips="1" connect="1" arrows="1" fold="1" page="1" pageScale="1" pageWidth="1100" pageHeight="850" background="#ffffff" math="0" shadow="0">
      <root>
        <mxCell id="0" />
        <mxCell id="1" parent="0" />
        <mxCell id="BdaVvMb0XZOWNrcOyZhd-1" value="&lt;font style=&quot;line-height: 140%&quot;&gt;&lt;font face=&quot;Courier New&quot;&gt;&lt;b&gt;&lt;font style=&quot;font-size: 16px&quot;&gt;NameRegistry&lt;/font&gt;&lt;br style=&quot;font-size: 16px&quot;&gt;&lt;br style=&quot;font-size: 16px&quot;&gt;&lt;/b&gt;&lt;/font&gt;Maps each name to a record containing:&lt;br&gt;&lt;ul style=&quot;font-size: 16px&quot;&gt;&lt;li&gt;&lt;font style=&quot;font-size: 16px&quot;&gt;owner&lt;/font&gt;&lt;/li&gt;&lt;li&gt;address (optional)&lt;/li&gt;&lt;li&gt;&lt;span&gt;TTL (optional)&lt;/span&gt;&lt;br&gt;&lt;/li&gt;&lt;li&gt;&lt;span&gt;arbitrary data&lt;/span&gt;&lt;/li&gt;&lt;/ul&gt;&lt;/font&gt;" style="verticalAlign=top;align=left;spacingTop=16;spacingLeft=12;spacingRight=12;shape=cube;size=10;direction=south;fontStyle=0;html=1;fontSize=16;fontColor=#000000;" parent="1" vertex="1">
          <mxGeometry x="40" y="280" width="370" height="200" as="geometry" />
        </mxCell>
        <mxCell id="BdaVvMb0XZOWNrcOyZhd-2" value="&lt;font&gt;&lt;font face=&quot;Courier New&quot;&gt;&lt;b&gt;NameValidator&lt;br style=&quot;font-size: 16px&quot;&gt;&lt;br style=&quot;font-size: 16px&quot;&gt;&lt;/b&gt;&lt;/font&gt;Performs IDNA name check&lt;br&gt;&lt;/font&gt;" style="verticalAlign=top;align=left;spacingTop=16;spacingLeft=12;spacingRight=12;shape=cube;size=10;direction=south;fontStyle=0;html=1;fontSize=16;fontColor=#000000;" parent="1" vertex="1">
          <mxGeometry x="580" y="320" width="230" height="100" as="geometry" />
        </mxCell>
        <mxCell id="BdaVvMb0XZOWNrcOyZhd-3" value="validates new names" style="html=1;verticalAlign=bottom;endArrow=block;fontSize=16;fontColor=#000000;exitX=0;exitY=0;exitDx=85;exitDy=0;exitPerimeter=0;entryX=0.477;entryY=1.006;entryDx=0;entryDy=0;entryPerimeter=0;strokeWidth=1;" parent="1" source="BdaVvMb0XZOWNrcOyZhd-1" target="BdaVvMb0XZOWNrcOyZhd-2" edge="1">
          <mxGeometry width="80" relative="1" as="geometry">
            <mxPoint x="510" y="420" as="sourcePoint" />
            <mxPoint x="590" y="420" as="targetPoint" />
          </mxGeometry>
        </mxCell>
        <mxCell id="BdaVvMb0XZOWNrcOyZhd-8" value="&lt;font&gt;&lt;font style=&quot;font-weight: bold ; font-family: &amp;#34;courier new&amp;#34; ; font-size: 16px&quot;&gt;TLDRegistrar&lt;/font&gt;&lt;br style=&quot;font-size: 16px&quot;&gt;&lt;ul style=&quot;line-height: 140%&quot;&gt;&lt;li&gt;&lt;font&gt;Manages second level domains for the &lt;font face=&quot;Courier New&quot;&gt;.tez&lt;/font&gt;&amp;nbsp;TLD&lt;/font&gt;&lt;/li&gt;&lt;li&gt;&lt;font&gt;Implements sealed-bid auction&lt;/font&gt;&lt;/li&gt;&lt;/ul&gt;&lt;/font&gt;" style="verticalAlign=top;align=left;spacingTop=16;spacingLeft=12;spacingRight=12;shape=cube;size=10;direction=south;fontStyle=0;html=1;fontSize=16;fontColor=#000000;" parent="1" vertex="1">
          <mxGeometry x="40" y="40" width="430" height="120" as="geometry" />
        </mxCell>
        <mxCell id="BdaVvMb0XZOWNrcOyZhd-10" value="creates records,&lt;br&gt;transfers ownership of 2LD" style="html=1;verticalAlign=bottom;endArrow=block;fontSize=16;fontColor=#000000;entryX=0.01;entryY=0.637;entryDx=0;entryDy=0;entryPerimeter=0;strokeWidth=1;exitX=1.046;exitY=0.683;exitDx=0;exitDy=0;exitPerimeter=0;" parent="1" source="BdaVvMb0XZOWNrcOyZhd-8" target="BdaVvMb0XZOWNrcOyZhd-1" edge="1">
          <mxGeometry width="80" relative="1" as="geometry">
            <mxPoint x="174" y="162" as="sourcePoint" />
            <mxPoint x="101" y="370" as="targetPoint" />
          </mxGeometry>
        </mxCell>
        <mxCell id="BdaVvMb0XZOWNrcOyZhd-11" value="holds TLD ownership" style="endArrow=open;endSize=12;dashed=1;html=1;fontSize=16;fontColor=#000000;entryX=0.014;entryY=0.239;entryDx=0;entryDy=0;entryPerimeter=0;exitX=1.071;exitY=0.343;exitDx=0;exitDy=0;exitPerimeter=0;" parent="1" source="BdaVvMb0XZOWNrcOyZhd-8" target="BdaVvMb0XZOWNrcOyZhd-1" edge="1">
          <mxGeometry x="0.2958" y="-1" width="160" relative="1" as="geometry">
            <mxPoint x="322" y="162" as="sourcePoint" />
            <mxPoint x="231" y="379" as="targetPoint" />
            <mxPoint as="offset" />
          </mxGeometry>
        </mxCell>
        <mxCell id="JLqXXN6Le2CpG2_xC3Ge-1" value="&lt;font&gt;&lt;font face=&quot;Courier New&quot;&gt;&lt;b&gt;&lt;font style=&quot;font-size: 16px&quot;&gt;ReverseRegistry&lt;/font&gt;&lt;br style=&quot;font-size: 16px&quot;&gt;&lt;br style=&quot;font-size: 16px&quot;&gt;&lt;/b&gt;&lt;/font&gt;Maps each address to a record containing:&lt;br&gt;&lt;ul style=&quot;line-height: 140%&quot;&gt;&lt;li&gt;owner&lt;/li&gt;&lt;li&gt;&lt;font&gt;name (optional)&lt;/font&gt;&lt;/li&gt;&lt;/ul&gt;&lt;/font&gt;" style="verticalAlign=top;align=left;spacingTop=16;spacingLeft=12;spacingRight=12;shape=cube;size=10;direction=south;fontStyle=0;html=1;fontSize=16;fontColor=#000000;" parent="1" vertex="1">
          <mxGeometry x="40" y="570" width="370" height="160" as="geometry" />
        </mxCell>
        <mxCell id="JLqXXN6Le2CpG2_xC3Ge-8" value="registers,&lt;br&gt;bids,&lt;br&gt;renews" style="rounded=0;orthogonalLoop=1;jettySize=auto;html=1;entryX=0.843;entryY=1.005;entryDx=0;entryDy=0;entryPerimeter=0;fontSize=16;fillColor=#f8cecc;strokeColor=#b85450;strokeWidth=4;" parent="1" source="JLqXXN6Le2CpG2_xC3Ge-3" target="BdaVvMb0XZOWNrcOyZhd-8" edge="1">
          <mxGeometry relative="1" as="geometry" />
        </mxCell>
        <mxCell id="JLqXXN6Le2CpG2_xC3Ge-3" value="&lt;font style=&quot;font-size: 20px&quot;&gt;&lt;span style=&quot;font-size: 16px&quot;&gt;DApp or contract&lt;/span&gt;&lt;/font&gt;" style="shape=actor;whiteSpace=wrap;html=1;fontSize=20;verticalAlign=bottom;fontStyle=0;fillColor=#f8cecc;strokeColor=#b85450;" parent="1" vertex="1">
          <mxGeometry x="-280" y="210" width="110" height="165" as="geometry" />
        </mxCell>
        <mxCell id="JLqXXN6Le2CpG2_xC3Ge-9" value="updates &amp;amp; creates&lt;br&gt;records" style="rounded=0;orthogonalLoop=1;jettySize=auto;html=1;entryX=0.397;entryY=0.994;entryDx=0;entryDy=0;entryPerimeter=0;fontSize=16;fillColor=#f8cecc;strokeColor=#b85450;strokeWidth=4;" parent="1" source="JLqXXN6Le2CpG2_xC3Ge-3" target="BdaVvMb0XZOWNrcOyZhd-1" edge="1">
          <mxGeometry x="-0.1356" y="2" relative="1" as="geometry">
            <mxPoint x="-155.00300000000016" y="132.5" as="sourcePoint" />
            <mxPoint x="44.960000000000036" y="136.8800000000001" as="targetPoint" />
            <mxPoint x="1" as="offset" />
          </mxGeometry>
        </mxCell>
        <mxCell id="JLqXXN6Le2CpG2_xC3Ge-11" value="sets reverse&lt;br&gt;records" style="rounded=0;orthogonalLoop=1;jettySize=auto;html=1;entryX=0.247;entryY=1.01;entryDx=0;entryDy=0;entryPerimeter=0;fontSize=16;fillColor=#f8cecc;strokeColor=#b85450;strokeWidth=4;" parent="1" source="JLqXXN6Le2CpG2_xC3Ge-3" target="JLqXXN6Le2CpG2_xC3Ge-1" edge="1">
          <mxGeometry x="-0.1356" y="2" relative="1" as="geometry">
            <mxPoint x="-190.00000000000006" y="279.39" as="sourcePoint" />
            <mxPoint x="6.670000000000002" y="460.0000000000001" as="targetPoint" />
            <mxPoint x="1" as="offset" />
          </mxGeometry>
        </mxCell>
        <mxCell id="JLqXXN6Le2CpG2_xC3Ge-15" value="Blockchain users" style="ellipse;shape=cloud;whiteSpace=wrap;html=1;fontSize=16;fillColor=#d5e8d4;strokeColor=#82b366;" parent="1" vertex="1">
          <mxGeometry x="580" y="490" width="210" height="140" as="geometry" />
        </mxCell>
        <mxCell id="JLqXXN6Le2CpG2_xC3Ge-20" value="keeps consistent" style="endArrow=open;endSize=12;dashed=1;html=1;fontSize=16;fontColor=#000000;startArrow=open;startFill=0;startSize=12;" parent="1" source="BdaVvMb0XZOWNrcOyZhd-1" target="JLqXXN6Le2CpG2_xC3Ge-1" edge="1">
          <mxGeometry x="-0.1003" y="-1" width="160" relative="1" as="geometry">
            <mxPoint x="333.9200000000001" y="171.80000000000018" as="sourcePoint" />
            <mxPoint x="248.19999999999936" y="559.5200000000002" as="targetPoint" />
            <mxPoint as="offset" />
          </mxGeometry>
        </mxCell>
        <mxCell id="JLqXXN6Le2CpG2_xC3Ge-24" value="look up" style="html=1;verticalAlign=bottom;endArrow=block;fontSize=16;fillColor=#d5e8d4;strokeColor=#82b366;strokeWidth=4;fontStyle=1" parent="1" source="JLqXXN6Le2CpG2_xC3Ge-15" target="BdaVvMb0XZOWNrcOyZhd-1" edge="1">
          <mxGeometry x="-0.0716" y="9" width="80" relative="1" as="geometry">
            <mxPoint x="510" y="420" as="sourcePoint" />
            <mxPoint x="590" y="420" as="targetPoint" />
            <mxPoint x="-1" as="offset" />
          </mxGeometry>
        </mxCell>
        <mxCell id="JLqXXN6Le2CpG2_xC3Ge-27" value="look up" style="html=1;verticalAlign=bottom;endArrow=block;fontSize=16;fillColor=#d5e8d4;strokeColor=#82b366;strokeWidth=4;fontStyle=1;" parent="1" source="JLqXXN6Le2CpG2_xC3Ge-15" target="JLqXXN6Le2CpG2_xC3Ge-1" edge="1">
          <mxGeometry x="-0.0716" y="9" width="80" relative="1" as="geometry">
            <mxPoint x="640.001773986596" y="699.9960133969252" as="sourcePoint" />
            <mxPoint x="404.84000000000003" y="676.8099999999998" as="targetPoint" />
            <mxPoint x="-1" as="offset" />
          </mxGeometry>
        </mxCell>
      </root>
    </mxGraphModel>
  </diagram>
</mxfile>
